<svg width="2854" height="743" viewBox="0 0 2854 743" fill="none" xmlns="http://www.w3.org/2000/svg">
<rect width="2854" height="743" fill="white"/>
<g clip-path="url(#clip0_979_8597)">
<path d="M1826.39 473.108C1882.74 473.108 1928.42 427.447 1928.42 371.121C1928.42 314.796 1882.74 269.135 1826.39 269.135C1770.04 269.135 1724.36 314.796 1724.36 371.121C1724.36 427.447 1770.04 473.108 1826.39 473.108Z" fill="#FC6339"/>
<path d="M1395.39 473.108C1451.74 473.108 1497.42 427.447 1497.42 371.121C1497.42 314.796 1451.74 269.135 1395.39 269.135C1339.04 269.135 1293.36 314.796 1293.36 371.121C1293.36 427.447 1339.04 473.108 1395.39 473.108Z" fill="#10B585"/>
<path d="M389.357 362.135C445.69 362.135 491.357 332.809 491.357 296.635C491.357 260.46 445.69 231.135 389.357 231.135C333.024 231.135 287.357 260.46 287.357 296.635C287.357 332.809 333.024 362.135 389.357 362.135Z" fill="white"/>
<path d="M667.941 301.714C657.463 295.488 649.263 287.44 643.34 277.113C637.418 266.939 634.381 255.55 634.381 243.249C634.381 230.949 637.266 220.319 643.34 210.144C649.263 199.97 657.463 191.769 667.941 185.999C678.42 180.076 689.809 177.039 702.109 177.039C714.41 177.039 725.04 180.076 735.214 185.999C745.389 191.921 753.741 199.97 760.119 210.144C766.497 220.319 769.686 231.404 769.686 243.249C769.686 255.094 766.497 266.787 760.119 277.113C753.741 287.288 745.389 295.488 735.214 301.714C725.04 307.94 713.954 310.978 702.109 310.978C690.264 310.978 678.42 307.94 667.941 301.714ZM667.941 557.595C657.463 551.368 649.263 543.32 643.34 532.994C637.418 522.819 634.381 511.43 634.381 499.129C634.381 486.829 637.266 476.199 643.34 466.024C649.263 455.85 657.463 447.65 667.941 441.879C678.42 435.957 689.809 433.071 702.109 433.071C714.41 433.071 725.04 435.957 735.214 441.879C745.389 447.801 753.741 455.85 760.119 466.024C766.497 476.199 769.686 487.284 769.686 499.129C769.686 510.974 766.497 522.667 760.119 532.994C753.741 543.168 745.389 551.368 735.214 557.595C725.04 563.821 713.954 566.858 702.109 566.858C690.264 566.858 678.42 563.821 667.941 557.595Z" fill="black"/>
<path d="M1290.71 542.112C1261.4 525.863 1239.08 502.933 1223.44 473.472C1207.8 444.012 1200.05 409.996 1200.05 371.424C1200.05 332.852 1207.8 298.228 1223.44 268.92C1238.93 239.611 1261.4 216.833 1290.71 200.584C1320.02 184.335 1354.64 176.135 1394.88 176.135C1435.13 176.135 1469.6 184.335 1499.06 200.584C1528.52 216.833 1551.15 239.611 1566.64 268.92C1582.12 298.228 1590.02 332.396 1590.02 371.424C1590.02 410.451 1582.28 444.012 1566.64 473.472C1550.99 502.933 1528.52 525.863 1499.06 542.112C1469.6 558.361 1434.82 566.561 1394.88 566.561C1354.95 566.561 1320.02 558.361 1290.71 542.112ZM1427.99 456.92C1436.8 448.871 1443.48 437.33 1448.19 422.448C1452.89 407.414 1455.17 389.951 1455.17 370.057C1455.17 350.164 1452.89 333.004 1448.19 318.122C1443.48 303.24 1436.8 291.85 1427.99 283.954C1419.18 276.057 1408.55 272.109 1396.25 272.109C1383.19 272.109 1372.11 276.057 1362.84 283.954C1353.58 291.85 1346.44 303.088 1341.73 317.818C1337.03 332.548 1334.6 349.86 1334.6 370.057C1334.6 390.254 1337.03 408.173 1341.73 422.904C1346.44 437.634 1353.58 449.023 1362.84 457.072C1372.11 465.12 1383.34 469.068 1396.25 469.068C1408.55 469.068 1419.18 465.12 1427.99 457.072V456.92Z" fill="black"/>
<path d="M1722.44 542.112C1693.13 525.863 1670.8 502.933 1655.16 473.472C1639.52 444.012 1631.78 409.996 1631.78 371.424C1631.78 332.852 1639.52 298.228 1655.16 268.92C1670.65 239.611 1693.13 216.833 1722.44 200.584C1751.74 184.335 1786.37 176.135 1826.61 176.135C1866.85 176.135 1901.32 184.335 1930.79 200.584C1960.25 216.833 1982.87 239.611 1998.36 268.92C2013.85 298.228 2021.75 332.396 2021.75 371.424C2021.75 410.451 2014 444.012 1998.36 473.472C1982.72 502.933 1960.25 525.863 1930.79 542.112C1901.32 558.361 1866.55 566.561 1826.61 566.561C1786.67 566.561 1751.74 558.361 1722.44 542.112ZM1859.87 456.92C1868.68 448.871 1875.36 437.33 1880.06 422.448C1884.77 407.414 1887.05 389.951 1887.05 370.057C1887.05 350.164 1884.77 333.004 1880.06 318.122C1875.36 303.24 1868.68 291.85 1859.87 283.954C1851.06 276.057 1840.43 272.109 1828.13 272.109C1815.07 272.109 1803.98 276.057 1794.72 283.954C1785.46 291.85 1778.32 303.088 1773.61 317.818C1768.9 332.548 1766.48 349.86 1766.48 370.057C1766.48 390.254 1768.9 408.173 1773.61 422.904C1778.32 437.634 1785.46 449.023 1794.72 457.072C1803.98 465.12 1815.22 469.068 1828.13 469.068C1840.43 469.068 1851.06 465.12 1859.87 457.072V456.92Z" fill="black"/>
<path d="M2140.51 180.994C2175.14 180.994 2203.08 208.936 2203.08 243.56V252.064H2206.57C2214.92 228.07 2228.59 209.543 2247.57 196.18C2266.55 182.817 2289.03 176.135 2315 176.135C2332.46 176.135 2348.56 179.172 2363.29 185.398C2378.02 191.624 2390.17 200.432 2399.73 211.821C2409.3 223.363 2415.53 236.726 2418.56 252.064H2422.06C2426.92 236.726 2434.81 223.363 2445.75 211.821C2456.68 200.28 2470.04 191.472 2485.69 185.398C2501.33 179.172 2518.33 176.135 2536.41 176.135C2560.55 176.135 2581.81 181.298 2600.34 191.776C2618.86 202.254 2633.14 217.136 2643.31 236.574C2653.49 256.012 2658.65 278.639 2658.65 304.303V496.858C2658.65 531.482 2630.71 559.424 2596.09 559.424H2589.1C2554.48 559.424 2526.53 531.482 2526.53 496.858V336.8C2526.53 319.792 2522.13 306.581 2513.48 296.862C2504.82 287.295 2493.28 282.435 2478.85 282.435C2469.13 282.435 2460.63 284.561 2453.64 288.813C2446.51 293.065 2441.04 299.443 2437.09 307.644C2433.14 315.844 2431.17 325.715 2431.17 337.104V496.858C2431.17 531.482 2403.23 559.424 2368.6 559.424H2367.54C2332.92 559.424 2304.97 531.482 2304.97 496.858V336.345C2304.97 325.411 2303 315.844 2299.2 307.644C2295.41 299.443 2289.79 293.065 2282.65 288.813C2275.51 284.561 2267.01 282.435 2257.14 282.435C2247.27 282.435 2239.37 284.713 2232.23 289.117C2225.1 293.521 2219.63 299.899 2215.68 308.099C2211.73 316.299 2209.76 326.322 2209.76 337.863V497.01C2209.76 531.634 2181.82 559.576 2147.19 559.576H2140.51C2105.89 559.576 2077.95 531.634 2077.95 497.01V243.56C2077.95 208.936 2105.89 180.994 2140.51 180.994Z" fill="black"/>
<path d="M1446.97 559.424L1269.45 252.063L1446.97 559.424Z" fill="black"/>
<path d="M1049.87 308.713C1036.96 294.591 1025.57 289.731 1015.7 289.731C1005.83 289.731 997.937 292.009 990.799 296.413C983.662 300.817 978.195 307.195 974.247 315.395C970.298 323.595 968.324 333.618 968.324 345.159V504.306C968.324 538.93 940.382 566.871 905.759 566.871H899.077C864.454 566.871 836.512 538.93 836.512 504.306V250.856C836.512 216.232 864.454 188.29 899.077 188.29C933.701 188.29 961.642 216.232 961.642 250.856V259.36H965.135C973.487 235.366 987.155 216.839 1006.14 203.476C1025.12 190.112 1047.59 183.431 1073.56 183.431C1091.03 183.431 1107.12 186.468 1121.85 192.694C1136.58 198.92 1148.43 208.183 1157.99 219.725" fill="black"/>
<path d="M1104.38 334.833C1143.04 334.833 1174.38 303.49 1174.38 264.827C1174.38 226.163 1143.04 194.82 1104.38 194.82C1065.71 194.82 1034.37 226.163 1034.37 264.827C1034.37 303.49 1065.71 334.833 1104.38 334.833Z" fill="black"/>
<path d="M499.074 529.503C527.757 529.503 551.009 506.25 551.009 477.567C551.009 448.884 527.757 425.632 499.074 425.632C470.391 425.632 447.139 448.884 447.139 477.567C447.139 506.25 470.391 529.503 499.074 529.503Z" fill="black"/>
<path d="M540.986 508.092C527.926 529.353 505.907 540.894 479.635 551.22C453.364 561.546 423.448 566.709 389.735 566.709C349.949 566.709 315.629 558.965 286.472 543.323C257.315 527.682 234.84 505.359 219.047 476.05C203.254 446.742 195.357 411.966 195.357 371.572C195.357 331.178 203.254 298.225 219.047 268.765C234.84 239.304 257.164 216.526 286.017 200.429C314.718 184.332 348.278 176.283 386.698 176.283C425.118 176.283 457.16 184.028 485.254 199.517C513.348 215.007 535.063 237.33 550.401 266.487C565.738 295.643 568.32 312.348 571.509 342.416L571.965 349.401C561.79 363.372 531.267 401.488 520.029 401.488H258.378C247.141 401.488 237.878 392.377 237.878 380.987V348.034C237.878 336.797 246.989 327.534 258.378 327.534H425.726C441.215 327.534 456.401 313.714 453.667 294.58C453.667 294.58 452.453 288.658 448.808 284.254C442.582 276.661 433.774 272.409 427.548 270.435C417.829 267.55 408.11 265.727 393.076 266.79C381.231 267.702 366.957 271.65 357.238 276.661C347.519 281.672 339.774 288.658 334.307 297.618C328.84 306.577 325.651 316.752 325.196 328.141V406.196C325.196 419.256 327.929 430.949 333.396 441.275C338.863 451.601 346.76 459.65 356.934 465.117C367.109 470.735 378.953 473.469 392.469 473.469C402.036 473.469 410.844 471.95 418.892 469.065C427.092 466.18 433.622 461.928 439.697 457.372C444.252 454.031 448.808 450.994 451.541 448.564C458.375 442.642 465.512 437.023 472.65 432.619" fill="black"/>
<path d="M520.191 401.18C548.874 401.18 572.127 377.928 572.127 349.245C572.127 320.562 548.874 297.31 520.191 297.31C491.508 297.31 468.256 320.562 468.256 349.245C468.256 377.928 491.508 401.18 520.191 401.18Z" fill="black"/>
</g>
<defs>
<clipPath id="clip0_979_8597">
<rect width="2463.28" height="390.73" fill="white" transform="translate(195.357 176.135)"/>
</clipPath>
</defs>
</svg>
