<svg width="2464" height="391" viewBox="0 0 2464 391" fill="none" xmlns="http://www.w3.org/2000/svg">
<g clip-path="url(#clip0_584_39566)">
<path d="M1631.03 296.973C1687.38 296.973 1733.06 251.312 1733.06 194.986C1733.06 138.661 1687.38 93 1631.03 93C1574.68 93 1529 138.661 1529 194.986C1529 251.312 1574.68 296.973 1631.03 296.973Z" fill="#FC6339"/>
<path d="M1200.03 296.973C1256.38 296.973 1302.06 251.312 1302.06 194.986C1302.06 138.661 1256.38 93 1200.03 93C1143.68 93 1098 138.661 1098 194.986C1098 251.312 1143.68 296.973 1200.03 296.973Z" fill="#10B585"/>
<path d="M194 186C250.333 186 296 156.675 296 120.5C296 84.3254 250.333 55 194 55C137.667 55 92 84.3254 92 120.5C92 156.675 137.667 186 194 186Z" fill="white"/>
<path d="M472.584 125.58C462.106 119.353 453.905 111.305 447.983 100.979C442.061 90.8041 439.023 79.4148 439.023 67.1143C439.023 54.8138 441.909 44.1838 447.983 34.0093C453.905 23.8348 462.106 15.6345 472.584 9.8639C483.062 3.94145 494.451 0.904297 506.752 0.904297C519.052 0.904297 529.683 3.94145 539.857 9.8639C550.031 15.7864 558.384 23.8348 564.762 34.0093C571.14 44.1838 574.329 55.2694 574.329 67.1143C574.329 78.9592 571.14 90.6522 564.762 100.979C558.384 111.153 550.031 119.353 539.857 125.58C529.683 131.806 518.597 134.843 506.752 134.843C494.907 134.843 483.062 131.806 472.584 125.58ZM472.584 381.46C462.106 375.234 453.905 367.185 447.983 356.859C442.061 346.684 439.023 335.295 439.023 322.995C439.023 310.694 441.909 300.064 447.983 289.89C453.905 279.715 462.106 271.515 472.584 265.744C483.062 259.822 494.451 256.936 506.752 256.936C519.052 256.936 529.683 259.822 539.857 265.744C550.031 271.667 558.384 279.715 564.762 289.89C571.14 300.064 574.329 311.15 574.329 322.995C574.329 334.84 571.14 346.533 564.762 356.859C558.384 367.033 550.031 375.234 539.857 381.46C529.683 387.686 518.597 390.723 506.752 390.723C494.907 390.723 483.062 387.686 472.584 381.46Z" fill="black"/>
<path d="M1095.35 365.977C1066.04 349.728 1043.72 326.798 1028.08 297.337C1012.44 267.877 1004.69 233.861 1004.69 195.289C1004.69 156.717 1012.44 122.094 1028.08 92.7851C1043.57 63.4765 1066.04 40.6979 1095.35 24.4491C1124.66 8.20032 1159.28 0 1199.53 0C1239.77 0 1274.24 8.20032 1303.7 24.4491C1333.16 40.6979 1355.79 63.4765 1371.28 92.7851C1386.77 122.094 1394.66 156.262 1394.66 195.289C1394.66 234.317 1386.92 267.877 1371.28 297.337C1355.64 326.798 1333.16 349.728 1303.7 365.977C1274.24 382.226 1239.47 390.426 1199.53 390.426C1159.59 390.426 1124.66 382.226 1095.35 365.977ZM1232.63 280.785C1241.44 272.737 1248.12 261.195 1252.83 246.313C1257.54 231.279 1259.81 213.816 1259.81 193.922C1259.81 174.029 1257.54 156.869 1252.83 141.987C1248.12 127.105 1241.44 115.716 1232.63 107.819C1223.82 99.9224 1213.19 95.9741 1200.89 95.9741C1187.83 95.9741 1176.75 99.9224 1167.48 107.819C1158.22 115.716 1151.08 126.953 1146.38 141.683C1141.67 156.413 1139.24 173.725 1139.24 193.922C1139.24 214.119 1141.67 232.039 1146.38 246.769C1151.08 261.499 1158.22 272.888 1167.48 280.937C1176.75 288.985 1187.99 292.934 1200.89 292.934C1213.19 292.934 1223.82 288.985 1232.63 280.937V280.785Z" fill="black"/>
<path d="M1527.08 365.977C1497.77 349.728 1475.45 326.798 1459.81 297.337C1444.16 267.877 1436.42 233.861 1436.42 195.289C1436.42 156.717 1444.16 122.094 1459.81 92.7851C1475.3 63.4765 1497.77 40.6979 1527.08 24.4491C1556.39 8.20032 1591.01 0 1631.25 0C1671.5 0 1705.97 8.20032 1735.43 24.4491C1764.89 40.6979 1787.52 63.4765 1803 92.7851C1818.49 122.094 1826.39 156.262 1826.39 195.289C1826.39 234.317 1818.65 267.877 1803 297.337C1787.36 326.798 1764.89 349.728 1735.43 365.977C1705.97 382.226 1671.19 390.426 1631.25 390.426C1591.31 390.426 1556.39 382.226 1527.08 365.977ZM1664.51 280.785C1673.32 272.737 1680 261.195 1684.71 246.313C1689.42 231.279 1691.69 213.816 1691.69 193.922C1691.69 174.029 1689.42 156.869 1684.71 141.987C1680 127.105 1673.32 115.716 1664.51 107.819C1655.7 99.9224 1645.07 95.9741 1632.77 95.9741C1619.71 95.9741 1608.63 99.9224 1599.36 107.819C1590.1 115.716 1582.96 126.953 1578.26 141.683C1573.55 156.413 1571.12 173.725 1571.12 193.922C1571.12 214.119 1573.55 232.039 1578.26 246.769C1582.96 261.499 1590.1 272.888 1599.36 280.937C1608.63 288.985 1619.86 292.934 1632.77 292.934C1645.07 292.934 1655.7 288.985 1664.51 280.937V280.785Z" fill="black"/>
<path d="M1945.16 4.85945C1979.78 4.85945 2007.72 32.8013 2007.72 67.4248V75.9289H2011.21C2019.57 51.9354 2033.23 33.4087 2052.21 20.0452C2071.2 6.68174 2093.67 0 2119.64 0C2137.1 0 2153.2 3.03716 2167.93 9.26332C2182.66 15.4895 2194.81 24.2972 2204.38 35.6866C2213.94 47.2278 2220.17 60.5912 2223.21 75.9289H2226.7C2231.56 60.5912 2239.46 47.2278 2250.39 35.6866C2261.32 24.1454 2274.69 15.3376 2290.33 9.26332C2305.97 3.03716 2322.98 0 2341.05 0C2365.19 0 2386.45 5.16316 2404.98 15.6413C2423.51 26.1195 2437.78 41.0016 2447.96 60.4394C2458.13 79.8772 2463.29 102.504 2463.29 128.168V320.724C2463.29 355.347 2435.35 383.289 2400.73 383.289H2393.74C2359.12 383.289 2331.18 355.347 2331.18 320.724V160.666C2331.18 143.657 2326.77 130.446 2318.12 120.727C2309.46 111.16 2297.92 106.3 2283.49 106.3C2273.78 106.3 2265.27 108.426 2258.29 112.678C2251.15 116.93 2245.68 123.308 2241.73 131.509C2237.79 139.709 2235.81 149.58 2235.81 160.969V320.724C2235.81 355.347 2207.87 383.289 2173.25 383.289H2172.18C2137.56 383.289 2109.62 355.347 2109.62 320.724V160.21C2109.62 149.276 2107.64 139.709 2103.85 131.509C2100.05 123.308 2094.43 116.93 2087.29 112.678C2080.16 108.426 2071.65 106.3 2061.78 106.3C2051.91 106.3 2044.01 108.578 2036.88 112.982C2029.74 117.386 2024.27 123.764 2020.32 131.964C2016.38 140.165 2014.4 150.187 2014.4 161.729V320.875C2014.4 355.499 1986.46 383.441 1951.84 383.441H1945.16C1910.53 383.441 1882.59 355.499 1882.59 320.875V67.4248C1882.59 32.8013 1910.53 4.85945 1945.16 4.85945Z" fill="black"/>
<path d="M1251.62 383.289L1074.1 75.9287L1251.62 383.289Z" fill="black"/>
<path d="M854.514 132.579C841.607 118.456 830.217 113.596 820.346 113.596C810.476 113.596 802.579 115.874 795.442 120.278C788.304 124.682 782.838 131.06 778.889 139.26C774.941 147.461 772.967 157.483 772.967 169.024V328.171C772.967 362.795 745.025 390.737 710.401 390.737H703.72C669.096 390.737 641.154 362.795 641.154 328.171V74.7207C641.154 40.0972 669.096 12.1553 703.72 12.1553C738.343 12.1553 766.285 40.0972 766.285 74.7207V83.2248H769.778C778.13 59.2313 791.797 40.7046 810.779 27.3411C829.762 13.9776 852.237 7.2959 878.204 7.2959C895.668 7.2959 911.765 10.3331 926.495 16.5592C941.225 22.7854 953.07 32.0487 962.637 43.5899" fill="black"/>
<path d="M909.02 158.698C947.684 158.698 979.027 127.355 979.027 88.692C979.027 50.0285 947.684 18.6855 909.02 18.6855C870.357 18.6855 839.014 50.0285 839.014 88.692C839.014 127.355 870.357 158.698 909.02 158.698Z" fill="black"/>
<path d="M303.717 353.368C332.4 353.368 355.652 330.116 355.652 301.432C355.652 272.749 332.4 249.497 303.717 249.497C275.033 249.497 251.781 272.749 251.781 301.432C251.781 330.116 275.033 353.368 303.717 353.368Z" fill="black"/>
<path d="M345.628 331.958C332.568 353.218 310.549 364.759 284.278 375.085C258.006 385.412 228.09 390.575 194.378 390.575C154.591 390.575 120.271 382.83 91.1147 367.189C61.958 351.547 39.483 329.224 23.6898 299.916C7.8966 270.607 0 235.832 0 195.438C0 155.043 7.8966 122.09 23.6898 92.6298C39.483 63.1694 61.8061 40.3907 90.6591 24.2938C119.36 8.1969 152.921 0.148438 191.341 0.148438C229.761 0.148438 261.803 7.89318 289.896 23.3827C317.99 38.8722 339.706 61.1953 355.043 90.3519C370.381 119.509 372.963 136.213 376.152 166.281L376.607 173.266C366.433 187.237 335.909 225.353 324.672 225.353H63.021C51.7835 225.353 42.5202 216.242 42.5202 204.853V171.9C42.5202 160.662 51.6316 151.399 63.021 151.399H230.368C245.858 151.399 261.043 137.58 258.31 118.446C258.31 118.446 257.095 112.523 253.451 108.119C247.224 100.526 238.417 96.2744 232.191 94.3002C222.472 91.4149 212.753 89.5927 197.719 90.6557C185.874 91.5668 171.599 95.5151 161.88 100.526C152.161 105.538 144.417 112.523 138.95 121.483C133.483 130.442 130.294 140.617 129.838 152.006V230.061C129.838 243.121 132.572 254.814 138.039 265.14C143.506 275.467 151.402 283.515 161.577 288.982C171.751 294.601 183.596 297.334 197.111 297.334C206.678 297.334 215.486 295.815 223.535 292.93C231.735 290.045 238.265 285.793 244.339 281.237C248.895 277.896 253.451 274.859 256.184 272.429C263.018 266.507 270.155 260.888 277.292 256.484" fill="black"/>
<path d="M324.834 225.046C353.517 225.046 376.769 201.793 376.769 173.11C376.769 144.427 353.517 121.175 324.834 121.175C296.151 121.175 272.898 144.427 272.898 173.11C272.898 201.793 296.151 225.046 324.834 225.046Z" fill="black"/>
</g>
<defs>
<clipPath id="clip0_584_39566">
<rect width="2463.28" height="390.73" fill="white"/>
</clipPath>
</defs>
</svg>
